# xmcd
#
# Track frame offsets:
#	150
#	17072
#	32570
#	45755
#	62715
#	75255
#	92132
#	104952
#	123370
#	139735
#
# Disc length: 2148 seconds
#
# Revision: 0
# Processed by: cddbd v1.5.2PL0 Copyright (c) Steve Scherf et al.
# Submitted via: audiograbber 1.83.01
#
DISCID=7808620a
DTITLE=The Oak Ridge Boys - Fancy Free
DYEAR=1981
DGENRE=Country
TTITLE0=Elvira
TTITLE1=Somewhere in the Night
TTITLE2=She's Gone To L.A. Again
TTITLE3=When I'm With You
TTITLE4=Another Dream Just Came True
TTITLE5=I'm Settin' Fancy Free
TTITLE6=Dream Of Me
TTITLE7=When Love Calls You
TTITLE8=How Long Has It Been
TTITLE9=I Would Crawl All The Way (To The River)
EXTD=
EXTT0=
EXTT1=
EXTT2=
EXTT3=
EXTT4=
EXTT5=
EXTT6=
EXTT7=
EXTT8=
EXTT9=
PLAYORDER=
